/* XPM */
static char *_dac625d0cf9444def35d3c109d54211[] = {
/* columns rows colors chars-per-pixel */
"16 16 192 2 ",
"   c #2B2117",
".  c #332B1D",
"X  c #222322",
"o  c #252522",
"O  c #2B2A24",
"+  c #2B2926",
"@  c #2F2B24",
"#  c #25272A",
"$  c #2D2D2B",
"%  c #322A20",
"&  c #332F27",
"*  c #2F3029",
"=  c #2E302D",
"-  c #333024",
";  c #3B3122",
":  c #3A3123",
">  c #3E3727",
",  c #303029",
"<  c #31312B",
"1  c #37342A",
"2  c #33332F",
"3  c #35332E",
"4  c #34332F",
"5  c #37342E",
"6  c #3C3529",
"7  c #3E372C",
"8  c #3E392E",
"9  c #3F392F",
"0  c #353631",
"q  c #363730",
"w  c #3B3F33",
"e  c #3F3D33",
"r  c #3D3B34",
"t  c #3D3C34",
"y  c #3D3C35",
"u  c #3D3D39",
"i  c #473625",
"p  c #483F30",
"a  c #464031",
"s  c #424035",
"d  c #4A4233",
"f  c #4E4732",
"g  c #494235",
"h  c #4C4334",
"j  c #4F4636",
"k  c #434039",
"l  c #474239",
"z  c #45443A",
"x  c #45453F",
"c  c #48473B",
"v  c #48473E",
"b  c #4B483F",
"n  c #504535",
"m  c #534938",
"M  c #514B39",
"N  c #51493B",
"B  c #554D3E",
"V  c #544C3F",
"C  c #594F3F",
"Z  c #5E513C",
"A  c #444544",
"S  c #4D4E47",
"D  c #524D40",
"F  c #564E41",
"G  c #514E46",
"H  c #525043",
"J  c #575447",
"K  c #595040",
"L  c #595243",
"P  c #565648",
"I  c #57564F",
"U  c #5A5649",
"Y  c #575550",
"T  c #565653",
"R  c #525456",
"E  c #555757",
"W  c #5A5952",
"Q  c #5B5C56",
"!  c #5C5D58",
"~  c #635445",
"^  c #605645",
"/  c #645746",
"(  c #605749",
")  c #665B49",
"_  c #645E4C",
"`  c #6A5E49",
"'  c #685D4B",
"]  c #775F47",
"[  c #745E4E",
"{  c #636056",
"}  c #676459",
"|  c #60615C",
" . c #686458",
".. c #6C665E",
"X. c #746656",
"o. c #766B56",
"O. c #656663",
"+. c #6C6A61",
"@. c #6F6D61",
"#. c #6F6F67",
"$. c #6F6D6A",
"%. c #696B6C",
"&. c #6F6E6C",
"*. c #6D7865",
"=. c #767165",
"-. c #777567",
";. c #7C776C",
":. c #666B70",
">. c #6C6F72",
",. c #737270",
"<. c #7B7870",
"1. c #7B7871",
"2. c #7C7A70",
"3. c #7B7876",
"4. c #7D7A77",
"5. c #7F7D79",
"6. c #7C7C7A",
"7. c #81715B",
"8. c #807A6B",
"9. c #837A6C",
"0. c #847F6E",
"q. c #8D7D69",
"w. c #807D73",
"e. c #827E77",
"r. c #807D79",
"t. c #8A816F",
"y. c #8A8170",
"u. c #888371",
"i. c #89867B",
"p. c #8F8779",
"a. c #8D857A",
"s. c #8E897B",
"d. c #928775",
"f. c #91887B",
"g. c #E8AD7E",
"h. c #787B81",
"j. c #7B8085",
"k. c #868681",
"l. c #87878A",
"z. c #84888B",
"x. c #878A8E",
"c. c #958D81",
"v. c #908E8C",
"b. c #869282",
"n. c #889581",
"m. c #969183",
"M. c #999185",
"N. c #929089",
"B. c #93938E",
"V. c #98958F",
"C. c #9D998C",
"Z. c #9D9A8D",
"A. c #919292",
"S. c #9A9991",
"D. c #A39582",
"F. c #A29E8B",
"G. c #A59F8D",
"H. c #AC9F8C",
"J. c #A09C96",
"K. c #A7A18F",
"L. c #A7A190",
"P. c #ABA192",
"I. c #A8A194",
"U. c #AAA295",
"Y. c #A4A29A",
"T. c #A9A598",
"R. c #B4AA99",
"E. c #BBB09D",
"W. c #ADAAA3",
"Q. c #ABABA7",
"!. c #ABABAA",
"~. c #B1AAA0",
"^. c #BEB2A9",
"/. c #BCB8AB",
"(. c #AAADB0",
"). c #B8B4B0",
"_. c #BABBB9",
"`. c #C3A99D",
"'. c #C2B9A4",
"]. c #F7CA9C",
"[. c #C4C1B4",
"{. c #CEC8B6",
"}. c #C4C3BF",
"|. c #DFDAD1",
" X c #DBDBD9",
".X c #F8EBDC",
"XX c #E7E2E2",
"oX c #FCFBF9",
"OX c #FFFFFD",
"+X c #FDFDFE",
"@X c gray100",
"#X c None",
/* pixels */
"#X#X#X#X#X#X#X#X#X#X#X#X#X#X#X#X",
"#X#X#X#X#X#X#X#X#X#X#X#X#X#X#X#X",
"oXOX}.l.J.4.&.R T u 4 k 4 8 n |.",
"OXOX_.z.6.4.$.E | S q z 1 a > t.",
"]..X(.x.>.r.r.,.O.A q r p N 7 . ",
"g.XX(.h.:.1.%.w.;.T r g 1 O p d ",
"^. XA.h.S.1.! W ..{ U ; % , B ` ",
"~.).Y.C.C.i.+.Y # G o.  + K ^ m ",
"i.v.Q.m.s.K.K.=.B C ~ i ; ) ( h ",
"c.V.Q./.T.[.{.p.9.D.[ ] Z / K n ",
"I.N.i.B.K.u.K.E.P.H.X.q.7.' D 5 ",
"f.e.2.Q #.8._ 8.'.R.U.y.D < 4 $ ",
"M.@. .J b x z e A } -.H , X + , ",
"`.d.n.b.*.e o - f M c P p = y l ",
"#X#X#X#X#X#X#X#X#X#X#X#X#X#X#X#X",
"#X#X#X#X#X#X#X#X#X#X#X#X#X#X#X#X"
};
