/* XPM */
static char *_6a8a930c7634ff3a3d0b53e7b82f710[] = {
/* columns rows colors chars-per-pixel */
"32 32 250 2 ",
"   c #1B191B",
".  c #231E1C",
"X  c #1F201E",
"o  c #24231E",
"O  c #2B221B",
"+  c #2F2D1F",
"@  c #322718",
"#  c #352A1E",
"$  c #1B2128",
"%  c #242523",
"&  c #292620",
"*  c #272825",
"=  c #2B2A25",
"-  c #2C2D2A",
";  c #332D25",
":  c #2E302C",
">  c #373226",
",  c #3B3324",
"<  c #34332C",
"1  c #3B362B",
"2  c #3D392C",
"3  c #2D3032",
"4  c #343632",
"5  c #383631",
"6  c #363833",
"7  c #3C3C35",
"8  c #3C3C39",
"9  c #423524",
"0  c #4D3D25",
"q  c #413A2D",
"w  c #4A3C2A",
"e  c #503725",
"r  c #413D33",
"t  c #4F3B33",
"y  c #423E39",
"u  c #44402F",
"i  c #4C432D",
"p  c #52432D",
"a  c #59432A",
"s  c #424035",
"d  c #4B4234",
"f  c #45433B",
"g  c #4A463A",
"h  c #4B483C",
"j  c #514634",
"k  c #554B35",
"l  c #5A4A32",
"z  c #544B3B",
"x  c #594D3B",
"c  c #5B523E",
"v  c #614E39",
"b  c #434646",
"n  c #454B40",
"m  c #4C4C44",
"M  c #424549",
"N  c #474848",
"B  c #4C4D4B",
"V  c #534E42",
"C  c #5E4D41",
"Z  c #544E4B",
"A  c #555244",
"S  c #5C5343",
"D  c #535349",
"F  c #5A554D",
"G  c #525A4F",
"H  c #5C5B4D",
"J  c #4E5252",
"K  c #48555E",
"L  c #535453",
"P  c #585550",
"I  c #535854",
"U  c #5B5B53",
"Y  c #575958",
"T  c #5D5D5C",
"R  c #615643",
"E  c #645A47",
"W  c #695A44",
"Q  c #635B4B",
"!  c #6C5E4B",
"~  c #635C55",
"^  c #695F51",
"/  c #605F5A",
"(  c #6F634B",
")  c #73614B",
"_  c #666054",
"`  c #6C6554",
"'  c #6D6854",
"]  c #65625A",
"[  c #69665D",
"{  c #6D695F",
"}  c #726551",
"|  c #766855",
" . c #7C6B55",
".. c #726C5D",
"X. c #7B6E5C",
"o. c #7D725E",
"O. c #515961",
"+. c #656665",
"@. c #686764",
"#. c #6E6C63",
"$. c #62676C",
"%. c #6D6D6C",
"&. c #726E65",
"*. c #706E68",
"=. c #777364",
"-. c #7C7464",
";. c #7F7965",
":. c #73726C",
">. c #7B766B",
",. c #747B69",
"<. c #7D796D",
"1. c #656A72",
"2. c #6A6F75",
"3. c #6B727B",
"4. c #767574",
"5. c #797773",
"6. c #7C7A74",
"7. c #72737A",
"8. c #72787F",
"9. c #7D7C7A",
"0. c #8E634B",
"q. c #80735C",
"w. c #8B785E",
"e. c #837561",
"r. c #827B6B",
"t. c #8A7B68",
"y. c #947F61",
"u. c #987B6B",
"i. c #837E73",
"p. c #817E7A",
"a. c #8D836C",
"s. c #968067",
"d. c #848173",
"f. c #8C8575",
"g. c #83827C",
"h. c #8B867A",
"j. c #8E897E",
"k. c #938572",
"l. c #9B8975",
"z. c #928778",
"x. c #938B7D",
"c. c #89947F",
"v. c #96907E",
"b. c #B58F7D",
"n. c #A49276",
"m. c #A0917D",
"M. c #F3A45A",
"N. c #F1AC6F",
"B. c #F8B06D",
"V. c #F9B370",
"C. c #7B7E82",
"Z. c #7E8287",
"A. c #868380",
"S. c #898784",
"D. c #8D8B84",
"F. c #84878A",
"G. c #87888B",
"H. c #8B8C8B",
"J. c #908D82",
"K. c #9A8F82",
"L. c #938F8B",
"P. c #949081",
"I. c #9B9484",
"U. c #949189",
"Y. c #9B958C",
"T. c #9D9A8A",
"R. c #858A90",
"E. c #8A8E93",
"W. c #8B9094",
"Q. c #939394",
"!. c #989792",
"~. c #9C9A96",
"^. c #959699",
"/. c #979899",
"(. c #9C9C9A",
"). c #A09280",
"_. c #A09A84",
"`. c #A39C8C",
"'. c #A89D8B",
"]. c #A29D94",
"[. c #93A58D",
"{. c #ACA08C",
"}. c #ABA494",
"|. c #A4A39C",
" X c #ABA69F",
".X c #B1A796",
"XX c #B5AC96",
"oX c #B9A994",
"OX c #B3AC9C",
"+X c #BBAD9B",
"@X c #B7B19E",
"#X c #B9B19D",
"$X c #A7A6A5",
"%X c #A9A7A2",
"&X c #ACAAA3",
"*X c #B2ADA5",
"=X c #B1AFAD",
"-X c #B4B1A4",
";X c #BCB4A2",
":X c #B9B6AE",
">X c #BEBAAB",
",X c #B3B3B1",
"<X c #BAB7B2",
"1X c #BCBAB3",
"2X c #BAB7BA",
"3X c #BCBCBD",
"4X c #EAB38D",
"5X c #E4B997",
"6X c #C2B5A1",
"7X c #C9BCA6",
"8X c #C6BCAF",
"9X c #D0B5A7",
"0X c #D7B9AC",
"qX c #C2BAB1",
"wX c #CABEB6",
"eX c #C1BFBD",
"rX c #ACC4A6",
"tX c #AEC6A9",
"yX c #B6CAAD",
"uX c #CCC1AC",
"iX c #C6C3B6",
"pX c #CAC6B5",
"aX c #CAC7BB",
"sX c #CFCBBD",
"dX c #D4C0B7",
"fX c #D2CAB4",
"gX c #D3C9B8",
"hX c #E9C6AE",
"jX c #D1CFC6",
"kX c #DBCDCC",
"lX c #C4D7C2",
"zX c #D7D4C5",
"xX c #DAD5C2",
"cX c #DBD9D3",
"vX c #DDDDDF",
"bX c #E0DAC3",
"nX c #FCE9CB",
"mX c #E5E2DE",
"MX c #FDF0D2",
"NX c #DBDFE5",
"BX c #EAE7E1",
"VX c #EDEAE1",
"CX c #F2F0E7",
"ZX c #FDF6E2",
"AX c #F3F2EC",
"SX c #F7F6F5",
"DX c #FEFDF3",
"FX c #F7F9F8",
"GX c #FFFFFD",
"HX c None",
/* pixels */
"HXHXHXHXHXHXHXHXHXHXHXHXHXHXHXHXHXHXHXHXHXHXHXHXHXHXHXHXHXHXHXHX",
"HXHXHXHXHXHXHXHXHXHXHXHXHXHXHXHXHXHXHXHXHXHXHXHXHXHXHXHXHXHXHXHX",
"HXHXHXHXHXHXHXHXHXHXHXHXHXHXHXHXHXHXHXHXHXHXHXHXHXHXHXHXHXHXHXHX",
"HXHXHXHXHXHXHXHXHXHXHXHXHXHXHXHXHXHXHXHXHXHXHXHXHXHXHXHXHXHXHXHX",
"GXDXGXGXVXL.7.Q.&X~.p.4.%.%.T J T N 8 8 4 % h f - f r q z d 8XGX",
"GXGXGXGXDX$X2.$X Xp.p.4.i.$.T M L { 6 8 4 < n h   r q 2 q k gXGX",
"GXGXGXDXCX^.E.&X9.5.p.p.:.+.T B J i.Z 6 6 5 h h & 1 > 2 2 # ( AX",
"GXGXGXDXcXF.E.C.2.5.4.5.%.+.:.Y J ] *.4 8 5 f h < 2 j q z 2 9 e.",
"nXMXZXGX2XR.E.E.7.%.9.g.9.@.5.J 9.b Y 4 8 : r s 7 < Q z S ; , p ",
"M.N.hXSXeX/./.W.9.+.9.!.A.g.D.@.p.@.N 8 6 - f < 1 > z 5 1 = & 9 ",
"B.4XkXFXeXQ.W.C.$.O.+.>.$.%.D.6.@.6.L B 7 f g r j < 5 O p j q 1 ",
"B.9XNXAX=XG.Z.3.1.p.D.i.T K <.a.r.-.U H h s < z w   = 9 r g z k ",
"5X2XNXAX*XC.3.F.H.g.<.:.&.G ;.U L '.F m V r > k O # < < 2 S E R ",
"wX|.1XBX X2.8.&X*Xg.g.*.] L B P ~ [ V [ i.c 9 O # - - r z S } R ",
"1XU.%XBX].g.H.~.-X}.J.p.*.U L m 6 $ : ..f.x @   . 5 r j z E E k ",
"qXOX&X3X:X}.#X`.P.T.I.g.>.@.] U 3 $ < Q q.x 0 .   2 F ^ ( S q d ",
"}.`.i.G.<XJ.h.I.<.] h..XI.v.h.H r V d F ` x j # ; 9 z X.Q g d d ",
"#.&.g./.,X].9.T.{._.`.@XOX}.x...^ X.W Z ^ x l 9 p q t } ^ V x j ",
"Y.U.D.].,XjXiX:X-X>XpXzXpXXXj.;.~ o.s.) C 0.e a l q C  .S g R k ",
"{.z.D.%X|.R.>XXXU.U.&XsXxX;X'.f.-.x.OX7Xt.t w.y.} x E ! t z k 2 ",
".X-X!.D.h.9.(.iX@Xc.r.P.@XfXuX}.}.*X;X+Xl.F oXu.w.| } Q F x 5 = ",
"].Y.J.5.|.U.$.H.}._.a.;.=.f.XX;X'.'.).k.) z e. .| o.E E S f y 5 ",
"z.j.S.S.p.<.T J :.P.v.-.' ' _ T.fXn.m.K.z.p.u.e.q.S 5 5 7 4 - - ",
"K.j.r.>.@.&.#.H m U ,.d.' ..S ,.aXbXfXgXaX;X}.f.A % = * - - < * ",
"}.r.-.@.r...H A H D B G m h h c h G ] c.}.d.[ 8 : = % % % & - - ",
"*Xf.>./ ] [ [ H H m s 6 - s 6 < > ; ; 2 f 7 2 d r < % % = 1 > 1 ",
"dXu.r.c.,.U G h f 6 < < < - X + i k c E Q c F H u : = = < 5 s q ",
"0X0Xb.k.tXyXlXlXrX[.G s *   , i c S _ n f D G [ f 8 8 6 8 b m f ",
"HXHXHXHXHXHXHXHXHXHXHXHXHXHXHXHXHXHXHXHXHXHXHXHXHXHXHXHXHXHXHXHX",
"HXHXHXHXHXHXHXHXHXHXHXHXHXHXHXHXHXHXHXHXHXHXHXHXHXHXHXHXHXHXHXHX",
"HXHXHXHXHXHXHXHXHXHXHXHXHXHXHXHXHXHXHXHXHXHXHXHXHXHXHXHXHXHXHXHX",
"HXHXHXHXHXHXHXHXHXHXHXHXHXHXHXHXHXHXHXHXHXHXHXHXHXHXHXHXHXHXHXHX"
};
