/* XPM */
static char *_adccb6cf61141ec9fe1e5a6059ba3a8[] = {
/* columns rows colors chars-per-pixel */
"64 64 256 2 ",
"   c #1C1C1C",
".  c #191617",
"X  c #100F13",
"o  c #231E1A",
"O  c #221816",
"+  c #23221D",
"@  c #2B271C",
"#  c #332B1C",
"$  c #382A1B",
"%  c #3E311D",
"&  c #1B1E23",
"*  c #1E2226",
"=  c #242423",
"-  c #292524",
";  c #272925",
":  c #2B2B25",
">  c #2C2C2A",
",  c #24272A",
"<  c #332D24",
"1  c #352E27",
"2  c #2E312C",
"3  c #343125",
"4  c #3B3325",
"5  c #34332C",
"6  c #3B352B",
"7  c #3C392D",
"8  c #3D3827",
"9  c #2A2E34",
"0  c #2E3234",
"q  c #343533",
"w  c #393632",
"e  c #3B3B33",
"r  c #3D3D3A",
"t  c #343937",
"y  c #20201E",
"u  c #423A26",
"i  c #433B2C",
"p  c #4A3E2B",
"a  c #463825",
"s  c #423D33",
"d  c #433E39",
"f  c #523D29",
"g  c #3F4039",
"h  c #4B412D",
"j  c #46422C",
"k  c #55432A",
"l  c #444135",
"z  c #4B4334",
"x  c #44433C",
"c  c #4A453B",
"v  c #4C493C",
"b  c #484839",
"n  c #514533",
"m  c #544935",
"M  c #5A4B34",
"N  c #544C3C",
"B  c #5A4D3B",
"V  c #564535",
"C  c #5C523C",
"Z  c #54513E",
"A  c #634C38",
"S  c #64563C",
"D  c #684E34",
"F  c #383D42",
"G  c #2D3440",
"H  c #3D4449",
"J  c #454542",
"K  c #4C4B44",
"L  c #45494A",
"P  c #4A4C4C",
"I  c #464945",
"U  c #534D42",
"Y  c #594E44",
"T  c #4E5148",
"R  c #545244",
"E  c #5C5443",
"W  c #53534B",
"Q  c #5B554A",
"!  c #5C594C",
"~  c #595946",
"^  c #4B4E52",
"/  c #464B53",
"(  c #4B5154",
")  c #545554",
"_  c #5C5A52",
"`  c #5B5C5B",
"'  c #575756",
"]  c #615543",
"[  c #635945",
"{  c #645C4B",
"}  c #6A5E4B",
"|  c #655847",
" . c #765944",
".. c #615E54",
"X. c #675F55",
"o. c #6A624F",
"O. c #6A604B",
"+. c #73644D",
"@. c #786447",
"#. c #646154",
"$. c #6B6353",
"%. c #64635C",
"&. c #6A665B",
"*. c #6B695D",
"=. c #656A5F",
"-. c #746954",
";. c #7A6B55",
":. c #736B5C",
">. c #7C6E5A",
",. c #736656",
"<. c #79715C",
"1. c #65755B",
"2. c #575D62",
"3. c #5D6267",
"4. c #5C6772",
"5. c #656462",
"6. c #6C6A63",
"7. c #6C6C6B",
"8. c #656768",
"9. c #726D62",
"0. c #716E6C",
"q. c #757263",
"w. c #7B7464",
"e. c #75736C",
"r. c #7A756B",
"t. c #7D7A6B",
"y. c #7B7A69",
"u. c #676E75",
"i. c #6E7173",
"p. c #6C737B",
"a. c #747473",
"s. c #797674",
"d. c #7C7A74",
"f. c #72757B",
"g. c #7C7B7A",
"h. c #76787B",
"j. c #6F7065",
"k. c #5E615E",
"l. c #816E57",
"z. c #867359",
"x. c #9C6F53",
"c. c #837B6C",
"v. c #887966",
"b. c #937B66",
"n. c #827D74",
"m. c #817E79",
"M. c #8B7E71",
"N. c #895A43",
"B. c #7C827B",
"V. c #8A8169",
"C. c #95866B",
"Z. c #858275",
"A. c #8B8374",
"S. c #84827C",
"D. c #8A867B",
"F. c #8D8A7C",
"G. c #8F8975",
"H. c #938A7C",
"J. c #978A77",
"K. c #98917C",
"L. c #86977C",
"P. c #A68C79",
"I. c #A4957B",
"U. c #AD8A74",
"Y. c #F6AB66",
"T. c #F3B278",
"R. c #F5B06D",
"E. c #F2A057",
"W. c #797C83",
"Q. c #7D8288",
"!. c #798290",
"~. c #898681",
"^. c #8E8B84",
"/. c #83868A",
"(. c #8B8C8D",
"). c #858586",
"_. c #928E83",
"`. c #928F8B",
"'. c #8B9483",
"]. c #959184",
"[. c #9B9383",
"{. c #94928B",
"}. c #9B968C",
"|. c #9D998B",
" X c #8C8F92",
".X c #848A91",
"XX c #949494",
"oX c #9C9A94",
"OX c #959699",
"+X c #9B9B9B",
"@X c #989796",
"#X c #8F9195",
"$X c #A39C8D",
"%X c #A69A85",
"&X c #A49E93",
"*X c #97AB8E",
"=X c #ABA38C",
"-X c #A7A08D",
";X c #ABA493",
":X c #A5A39B",
">X c #ABA49A",
",X c #AAA798",
"<X c #B3AD9B",
"1X c #B6AA96",
"2X c #B9B29D",
"3X c #AEAF96",
"4X c #A4A4A3",
"5X c #ACAAA3",
"6X c #AAA9A7",
"7X c #B3AEA3",
"8X c #B4AFA8",
"9X c #B6B1A4",
"0X c #BBB5A5",
"qX c #B5B2AB",
"wX c #BBB6AC",
"eX c #BDBAAD",
"rX c #BCB9A7",
"tX c #BDBBB3",
"yX c #B9B7B7",
"uX c #A6BAA0",
"iX c #9C9FA3",
"pX c #C6AF95",
"aX c #EDB791",
"sX c #C3BCAC",
"dX c #C6BAA6",
"fX c #C3BEB2",
"gX c #CCBCB9",
"hX c #D2B7A8",
"jX c #E6BBA3",
"kX c #C19682",
"lX c #B4CCB0",
"zX c #C6C3B4",
"xX c #CAC5B8",
"cX c #D4CAB9",
"vX c #DBD2B8",
"bX c #CCC3AC",
"nX c #EFCFAA",
"mX c #FDE5B5",
"MX c #C8C7C4",
"NX c #D4CCC4",
"BX c #D5D2C4",
"VX c #D8D5C9",
"CX c #D8D7D4",
"ZX c #C9CBD2",
"AX c #E8D9CA",
"SX c #D3EECE",
"DX c #E7E4DC",
"FX c #F6ECCF",
"GX c #EAE8E6",
"HX c #F1EEE9",
"JX c #F8F4EB",
"KX c #FEFDF4",
"LX c #FEFEFC",
"PX c #F6F8F4",
"IX c #EAF8EA",
"UX c None",
/* pixels */
"UXUXUXUXUXUXUXUXUXUXUXUXUXUXUXUXUXUXUXUXUXUXUXUXUXUXUXUXUXUXUXUXUXUXUXUXUXUXUXUXUXUXUXUXUXUXUXUXUXUXUXUXUXUXUXUXUXUXUXUXUXUXUXUX",
"UXUXUXUXUXUXUXUXUXUXUXUXUXUXUXUXUXUXUXUXUXUXUXUXUXUXUXUXUXUXUXUXUXUXUXUXUXUXUXUXUXUXUXUXUXUXUXUXUXUXUXUXUXUXUXUXUXUXUXUXUXUXUXUX",
"UXUXUXUXUXUXUXUXUXUXUXUXUXUXUXUXUXUXUXUXUXUXUXUXUXUXUXUXUXUXUXUXUXUXUXUXUXUXUXUXUXUXUXUXUXUXUXUXUXUXUXUXUXUXUXUXUXUXUXUXUXUXUXUX",
"UXUXUXUXUXUXUXUXUXUXUXUXUXUXUXUXUXUXUXUXUXUXUXUXUXUXUXUXUXUXUXUXUXUXUXUXUXUXUXUXUXUXUXUXUXUXUXUXUXUXUXUXUXUXUXUXUXUXUXUXUXUXUXUX",
"UXUXUXUXUXUXUXUXUXUXUXUXUXUXUXUXUXUXUXUXUXUXUXUXUXUXUXUXUXUXUXUXUXUXUXUXUXUXUXUXUXUXUXUXUXUXUXUXUXUXUXUXUXUXUXUXUXUXUXUXUXUXUXUX",
"UXUXUXUXUXUXUXUXUXUXUXUXUXUXUXUXUXUXUXUXUXUXUXUXUXUXUXUXUXUXUXUXUXUXUXUXUXUXUXUXUXUXUXUXUXUXUXUXUXUXUXUXUXUXUXUXUXUXUXUXUXUXUXUX",
"UXUXUXUXUXUXUXUXUXUXUXUXUXUXUXUXUXUXUXUXUXUXUXUXUXUXUXUXUXUXUXUXUXUXUXUXUXUXUXUXUXUXUXUXUXUXUXUXUXUXUXUXUXUXUXUXUXUXUXUXUXUXUXUX",
"UXUXUXUXUXUXUXUXUXUXUXUXUXUXUXUXUXUXUXUXUXUXUXUXUXUXUXUXUXUXUXUXUXUXUXUXUXUXUXUXUXUXUXUXUXUXUXUXUXUXUXUXUXUXUXUXUXUXUXUXUXUXUXUX",
"LXLXLXKXLXLXLXKXLXCX:XW.s.).).>X}.@X4X6X`.s.f.0.7.8.8.i.' ' ) / ) %.) J 2 g J 2 d 2   - r K W - > d J J w 5 s c | | s V l.KXLXLX",
"LXLXLXLXLXLXLXLXKXNXoX(.p.W.W.6XfX8X}.`.~.0.s.m.0.5.0.a.' ) 3.' / 5.' w 9 I K > q K * = e b U d   5 e 7 d z 6 u u v N m b.LXLXLX",
"LXLXKXLXLXLXLXKXKXHXtX).f.u.).6X8XoXm.).m.s.0.a.0.m.6.6.3.5.' F F a.r.K , J K : > J > = K ! R b . > r 6 d z l # 7 c N  .dXLXLXLX",
"LXLXLXLXLXLXLXKXKXLXDX(.W.W.iXNX@X~.~.m.m.m.g.m.n.m.a.( ` %.P F t _ r.r.q t x g - 5 c > 7 _ { 2 . y l U 6 @ u i s i d n C.HXLXLX",
"LXLXLXLXLXLXKXKXKXVX@XQ.W.OXyX6X`.g.g.m.n.~.m.m.0.m.8.` ' ` ^ H t 7.c.j._ 2 2 x 2 > b g > ! { 7 y 5 : 1 4 # s z 4 3 u u M 1XKXLX",
"LXLXLXLXLXLXKXKXPXDX8X.XW.4X8X).a.i.g.s.0.~.m.m.8.8.8.%.5.` ^ k.H %.s.r.9.I t g e w e 2 > _ ~ : = 6 @ 6 i 3 4 8 4 8 3 j u a VXLX",
"LXLXLXLXLXKXKXJXJXCX+XW.(.OX).f.f.a.m.h.s.a.0.m.s.0.0.5.r.0.P 8.' F %.Z.D.! t x t 5 x e ; ~ !   l 7 . E Z 6 4 i B c 3 8 j j  .AX",
"LXLXLXLXLXKXKXJXHXqX/.!..X(.W.p.a.i.i.s.s.h.m.0.e.7.&.5.s.d.L / a.L J ` g..., t x q b w > ~ #.y { 1 . Z { 8 7 N Y Z 4 4 8 h n @.",
"LXLXKXKXLXLXKXKXDXOX!..XQ..X XW.W.u.7.7.a.g.F.g.d.i.5.` 0.D.^ F ~.d.t F %.%.t 0 I e e 2 q W Q = { e X N $.i R v c | i < 4 p k V ",
"nXnXmXmXFXFXJXLXDXOXiXOX.XOX#X#XW.i.7.h.s.S.S.S.g.g.d.7.%.XX5.G m.&X) 9 %.) q 0 r r e = 2 l 5 o ~ s X B X.N B m } Y : : 1 4 a B ",
"E.E.Y.R.aXAXHXLXVX+X4X+XOX+XOX X/.i.7.8.h.}.}.{.m.m.D.m.8.^.m.0 a.>XX.t ` P 9 2 e e 2 * 2 R e   C 1 X B | [ Y s s 1   o @ < 8 z ",
"Y.Y.R.aXjXNXGXLXZX6X+XOX#XOX X XW.h.8.3.7.].].}.`.m.~.^.m.`.>X^ ' 7Xs.W ) J W t t 2 > e l c 2 6 B @   h 4 : : - < a 4 : - : 1 a ",
"Y.Y.aXaXjXCXLXJXCXqXOX.XOX XQ.W.u.3.2./ / 8.n.c.j.8.h.m._.`.$X/ ' |.m.e.L T _ r r r 7 x K e 6 s m : 4 8 e z o - k k n n 1 : < 4 ",
"Y.R.aXjXgXGXLXHXNX6XOX#X(. XQ.p.4.4.2.3.5.3.n.` H Q.2.^ 7._.|.%.P g.e.t.` _ K K x l x b l l 6 s S B r 0 H 4 . 1 M n z C B i i 3 ",
"R.T.aXgXZXHXPXGXMXiX(.(. XQ.W.p.u.4.i.~.}._.H.D./ 8.u.4.u.y.G.G.#.9.e.6.' %.! _ T l l x s s 4 [ C % = & o o 4 p p c z z B N B h ",
"Y.T.hXyXZXPXHXGXxX@X(.Q.Q.p.W.u.u.i.g.~.D.n.n.D.a.H H ( y.G.b.w.A.I.H.:.Q %...U K b s e l 3 7 @.a @ o O @ 3 u 6 3 e s c m N B N ",
"R.jXgX8XCXGXGXHXgXOX).W.W.4.p.B.h.).^.g.d.t.d.Z.G.r.( P w.C.C.W t n.pXr.K Q W R U x 7 e 3 + m @.O O # # 4 5 w 6 6 s Z E | C } n ",
"aXgXyXyXZXGXPXPXfXOXW.W.W.u.!.:X:X^.S.d.g.e.%.=.%.9.9.%.%.r._ G 9 L pX1X! J K K Q _ b i 4 < A k . % 4 1 5 > ; : 6 i E [ O.O.} n ",
"cXgX8X6XgXCXDXGXwXXXW.p.u.Q.+XqX5XoXg.S.~.Z.e.6.%.T L ^ ^ W %.:.%.` s.J.9.l ..X.e.r.| j j a % # O f < ; ; ; e c s N C C | ;.+.h ",
"NXwX`.OX8X6XCXHXsX~.f.p.B./.OX6X9X7XoXS.Z.^.e.=.6.6.) P L P L Q z.' ( s e c 6.r.F.H.X.h p $ . O O $ : = 2 w e z E E X.X.} ;.+.z ",
"cX7X`.`.[.>XGXPXwXm.f.d.).S.XXrX9X<X&X}.D.Z.B.r.%.6.%.W T _ ^ t r g 9 9 , l 9.d.Z.A.[ a $ @ o o O @ g 7 6 7 c j z N B ] -.| N z ",
"AX0X>X>XoXgXMXDX7X^.^.].&X_._.&X9X3X:X<X{._.S.Z.S.e.6.) _ #.W K 0 , * * , e Q :.t.w.O.a $ # o   . + e b l c N Z v z Y { | n N k ",
"qX>X}.&X8XMXMXZXxX5X;X,X9X3X].F.{.-X<X,X|.|.{.r.5.k._ ..&.) _ _ H * * * > 5 E ,.v.>.O.f f a O . . & e l U Q } ] | -.;.{ c z M z ",
"gXgXfX7X+X@X4XyXMX:X$X3X2X2X2X|.S.S.Z.L.K.Z.A.Z.F.H.r.9.&.%.&.W r > * 5 5 3 N :.<.-.] k M k $ . o   ; l { #.,.X.-.:.N s s i h p ",
"gX1X;X;XF.r.m.#XMXeX|.].F.|.=X[.F.w.%.5.Z.=X3X3X$XH.A.G.n.:._ Y r 5 w c c 3 v ;.,.X.Y V k f % O $ < < 6 z E ;.;.$.E c i u 6 z z ",
"J._.[.D.n.).).OXqXeX{.g.a.g.F.A.c.q.=.%.e.].1X=XI.K.[.]._._.9.U d K R | [ n B } ,.} Y Y V f 1 $ 4 a p p s B >.w.} E Y N E Y B z ",
"0.c.c.6.m.d.m.).iXyX$Xg.r.d.^.%X[.K.H.H.[.].;X3X;X2X$X;X;XM.&.X.| Q O.w.+.N E ' ) c V Y V p i $ a k s i B B ] $.{ X.Q c B p h i ",
"6.:.&.6.a.).4X6XqXMXeX-X^.F.oX3X;X1X1X=X;X<X2XsX0X9X;X}.$XJ.G.M.w.:.<.v.z.z d e.n.} D A ] A V a k V s 6 1 s } l.,.Y m K N B B i ",
"9.M.~.@X:XqXyXqX6X4XMXzXeXtXMXxXsXeXzXeXzXNXBXVXzXrXbX-Xw.&.X.K %.c X.w.b.z.D k 1  .x. .D % $ k D f 3 1 h [ ;.l.+.Q Q U Q | [ V ",
"8XwX7X}.c.0.c.~.:XyXCXCXxXzXeX4X5X7XqXeXzXBXBXVXVXzX2X<X>X&X[.c.:.! :.v.b.P.C.z.c { x.N.D $ D  .S M m E | +.+.+.| s i n B A z d ",
"2X}.v.v.j.s.,XyXyX6XOX6XzXcX9X{.F.Z.D.K.|.<XsXcXcXbX<X-X=X[.A.H.M.v.H.$X&X-X1XpXb.{  .k f N.x.;.@.B p V n ] @.+.d d z N S N p 7 ",
"=X%XM.M.6XyXuX,X+X{.p.h.;XrX2X=X$X:XoXXX4XlXBXVXVXAXcX2X=X=Xc.M.v.X.M.$X<XdXfXbXpX| @ 4 C.pXC.b.z.:.C E [ } +.] v V N ] Y i 7 6 ",
"=X[.wXMX@Xs.{.oX_.S.6.8. XrXcXBXsX<XL.A.g.B.F.:XrXzXvXcXsX9X%X;X&X}.>X7XsXsXdX0XpX%X6 e.cX=XP.C.M.v.<.o.| l.} Z Y B B n s 2 1 3 ",
"[.cXNX~.m.:XD.d.Z.F.XX).#X6X9XrX<X=X%XK.V.<.<.A.|.=XsXbXvXbX2X1X&X>X0X0XwX%X%XP.J.b.i $.%XP.z.l.l.l.;.;.z.} { X.[ ,.Q w 2 1 : > ",
"wX4XM.%XgXG.6.e.{.5XoX{.h.i.oX:X3X,X;XK.G.A.G.V.1.B.G.-XbXbXbX=X1X0X;X<X%XP.%XK.b. .d | v.C.b.l.l.z.-.>.+.E C | $.Q Q U c r 1 ; ",
"4Xv._.>X_.9.0.XX:X&XoXg./ 2.B.B.}.&X|.K.G.G.V.-.<.<.<.B.y.=XdX1X%X[.%X%X%X%XJ.b.l.| c Y :.v.;.;.+.:.>.,.{ E { } N x 6 7 e x I s ",
"H.G.M.D.s.OX@X`.@X`.t.j.%.P ) 8.d.L.K.H.K.K.<.q.y.o.<.o.:.r.F.bXpX%XC.z.z.J.w.M.M.z.,.v.c.r.,.{ ,.v.>.v e s s b K e 2 q 2 = > r ",
"[.A.A.XX@XD.).g.6.%.d.Z.r.k.P ^ ` k.D.|.|.V.<.y.$.o.O.:.y.E :.tXDXvXpX=X=X2X&XqX&X&X$X;XH.G.A.b.C.,.v l e = > > > c d = w 2 o = ",
"_.J.[.].e.q.q.6.k.=.0.t.r.6._ W W L =.j.B.D.A.<.O.{ $.y.E v { |.NXDXAXvXvXcXeXwXgXwXqX>X>X[.J.K.V.l : 2 5 5 = 2 3 - w d - > > + ",
"$X[.A.c.t.M.F.t.y.j.9.*...*.%.Q T T T I _ y.G.y.q.#.:.o.B ~ :.B.m.xXVXvXbXxXsXbXNX0X1X;X=X%XM.*.T 7 ; : - ; 2 = ; > & > e : : > ",
"1X[.v.w.w.t.q.9.r.t.:.~ U _ W K _ #._ I ~ k.=.~ _ #.Q v Z ~ $.Z U 6.t.%.y.-X3XbXBXzX=X-X[.A.T 2 2 2 > ; = + ; = ; : ;   + w : ; ",
"wX$XM.c.c.=.%._ 9.M.y.<...R T v T 1.` T g T ( x e J x 7 7 g v R 6 2 5 5 x _ g B.S.'.j.%.K t w 2 w 5 : = = ; = = - = 2 > + = 5 > ",
"gX>X~.M.w.r.&.k.6.r.q.*.j.$.:.$.~ _ I b g g t t ; ; g g j 2 5 b c 4 > x 0 y + e 7 t 7 2 7 i l b r e w : ; = = ; : : : 6 4 1 6 e ",
"yX&XH.s.Z.d.9.#...%.! ....*.%.~ T ~ ~ b b j 7 2 5 3 i b l > 5 : 3 l 7 3 4 7 j m Z n z v v R Z Z z l 7 5 5 ; ; > > < < u 4 1 6 u ",
"MX7XP.M.5.m.F.y.6..._ ! ! T g g I T g 7 g 5 7 3 5 5 5 5 = * : @ 3 j j j C S [ o.o.{ Z Z R U R C h i > : ; = = = ; 3 7 7 i l 4 4 ",
"PXnXU.x.v.c.`.8XL.1.1.T L I b g g 2 : 2 2 5 5 5 : ; 2   . y # 8 u S S M C [ Z ~ #...U b T T =.Z 7 7 2 , 0 2 2 5 r w w r r v c 4 ",
"hXU.U.hXkXb.,.).lXlXuX*XlXlXlXuX*X*X'.1.b 2 2 g 2 = =   @ 8 j j Z [ S Z ~ [ U 7 K R Z W T ` j._ Z v b w w t > 0 w r P d J W x d ",
"jXCXHXAXkXkXU.M.uXlXSXSXIXIXPXIXSXSXSXlXL.1.T g ; y . y 7 j m h v Z b U { j.! t g T T T P ` =.{ b r q e g g g g 0 J d d J K K d ",
"UXUXUXUXUXUXUXUXUXUXUXUXUXUXUXUXUXUXUXUXUXUXUXUXUXUXUXUXUXUXUXUXUXUXUXUXUXUXUXUXUXUXUXUXUXUXUXUXUXUXUXUXUXUXUXUXUXUXUXUXUXUXUXUX",
"UXUXUXUXUXUXUXUXUXUXUXUXUXUXUXUXUXUXUXUXUXUXUXUXUXUXUXUXUXUXUXUXUXUXUXUXUXUXUXUXUXUXUXUXUXUXUXUXUXUXUXUXUXUXUXUXUXUXUXUXUXUXUXUX",
"UXUXUXUXUXUXUXUXUXUXUXUXUXUXUXUXUXUXUXUXUXUXUXUXUXUXUXUXUXUXUXUXUXUXUXUXUXUXUXUXUXUXUXUXUXUXUXUXUXUXUXUXUXUXUXUXUXUXUXUXUXUXUXUX",
"UXUXUXUXUXUXUXUXUXUXUXUXUXUXUXUXUXUXUXUXUXUXUXUXUXUXUXUXUXUXUXUXUXUXUXUXUXUXUXUXUXUXUXUXUXUXUXUXUXUXUXUXUXUXUXUXUXUXUXUXUXUXUXUX",
"UXUXUXUXUXUXUXUXUXUXUXUXUXUXUXUXUXUXUXUXUXUXUXUXUXUXUXUXUXUXUXUXUXUXUXUXUXUXUXUXUXUXUXUXUXUXUXUXUXUXUXUXUXUXUXUXUXUXUXUXUXUXUXUX",
"UXUXUXUXUXUXUXUXUXUXUXUXUXUXUXUXUXUXUXUXUXUXUXUXUXUXUXUXUXUXUXUXUXUXUXUXUXUXUXUXUXUXUXUXUXUXUXUXUXUXUXUXUXUXUXUXUXUXUXUXUXUXUXUX",
"UXUXUXUXUXUXUXUXUXUXUXUXUXUXUXUXUXUXUXUXUXUXUXUXUXUXUXUXUXUXUXUXUXUXUXUXUXUXUXUXUXUXUXUXUXUXUXUXUXUXUXUXUXUXUXUXUXUXUXUXUXUXUXUX",
"UXUXUXUXUXUXUXUXUXUXUXUXUXUXUXUXUXUXUXUXUXUXUXUXUXUXUXUXUXUXUXUXUXUXUXUXUXUXUXUXUXUXUXUXUXUXUXUXUXUXUXUXUXUXUXUXUXUXUXUXUXUXUXUX"
};
